<svg xmlns="http://www.w3.org/2000/svg" width="256" height="256" viewBox="0 0 100 100"><rect width="100" height="100" rx="20" fill="#417505"></rect><path fill="#fff" d="M24.19 38.40L24.19 38.40Q27.38 38.40 30.21 39.47Q33.03 40.54 35.12 42.62Q37.20 44.70 38.40 47.82Q39.60 50.94 39.60 55.04L39.60 55.04Q39.60 59.13 38.33 62.28Q37.07 65.44 34.79 67.58Q32.52 69.73 29.23 70.86Q25.95 72.00 21.98 72.00L21.98 72.00Q17.69 72.00 14.71 70.99Q11.71 69.99 9.63 68.49L9.63 68.49Q6.77 66.48 6.77 63.29L6.77 63.29L6.77 28.58Q7.49 28.39 8.82 28.19Q10.15 28.00 11.71 28.00L11.71 28.00Q14.96 28.00 16.39 29.07Q17.82 30.14 17.82 33.20L17.82 33.20L17.82 39.63Q19.13 39.11 20.72 38.75Q22.31 38.40 24.19 38.40ZM22.11 47.04L22.11 47.04Q20.81 47.04 19.74 47.37Q18.67 47.69 17.76 48.21L17.76 48.21L17.76 62.32Q18.47 62.71 19.48 63.00Q20.49 63.29 21.85 63.29L21.85 63.29Q24.78 63.29 26.53 61.21Q28.29 59.13 28.29 55.04L28.29 55.04Q28.29 50.88 26.63 48.96Q24.97 47.04 22.11 47.04ZM93.22 50.42L93.22 70.90Q92.51 71.09 91.18 71.29Q89.84 71.48 88.28 71.48L88.28 71.48Q85.03 71.48 83.61 70.41Q82.18 69.34 82.18 66.28L82.18 66.28L82.18 50.75Q82.18 48.80 81.14 47.92Q80.09 47.04 78.41 47.04L78.41 47.04Q77.30 47.04 76.29 47.43Q75.28 47.82 74.57 48.34L74.57 48.34Q74.57 48.60 74.60 48.83Q74.64 49.06 74.64 49.25L74.64 49.25L74.64 70.90Q73.92 71.09 72.59 71.29Q71.25 71.48 69.70 71.48L69.70 71.48Q66.45 71.48 65.02 70.41Q63.59 69.34 63.59 66.28L63.59 66.28L63.59 50.75Q63.59 48.80 62.45 47.92Q61.31 47.04 59.69 47.04L59.69 47.04Q58.45 47.04 57.54 47.40Q56.63 47.76 56.05 48.08L56.05 48.08L56.05 70.90Q55.33 71.09 54.00 71.29Q52.67 71.48 51.11 71.48L51.11 71.48Q47.86 71.48 46.43 70.41Q45.00 69.34 45.00 66.28L45.00 66.28L45.00 46.72Q45.00 44.96 45.74 43.86Q46.49 42.75 47.79 41.84L47.79 41.84Q50 40.28 53.25 39.34Q56.50 38.40 60.14 38.40L60.14 38.40Q62.81 38.40 65.24 39.11Q67.68 39.83 69.83 41.32L69.83 41.32Q71.78 40.09 74.21 39.24Q76.65 38.40 80.09 38.40L80.09 38.40Q82.56 38.40 84.94 39.05Q87.31 39.70 89.16 41.09Q91.02 42.49 92.12 44.80Q93.22 47.11 93.22 50.42L93.22 50.42Z"></path></svg>